<svg width="153" height="152" viewBox="0 0 153 152" fill="none" xmlns="http://www.w3.org/2000/svg">
<g clip-path="url(#clip0_29_800)">
<circle cx="147.5" cy="62.5" r="2" fill="#70BC64" stroke="#70BC64"/>
<mask id="path-2-inside-1_29_800" fill="white">
<path d="M121.848 16.6456C107.968 5.92376 90.7688 0.405664 73.2415 1.05075C55.7143 1.69582 38.9674 8.46327 25.9128 20.1764C12.8582 31.8895 4.32154 47.8075 1.78714 65.1625C-0.747256 82.5175 2.88091 100.212 12.0408 115.169C21.2007 130.126 35.3129 141.4 51.9238 147.031C68.5346 152.661 86.5934 152.292 102.96 145.987C119.327 139.682 132.966 127.841 141.507 112.521C150.048 97.2023 152.95 79.3744 149.708 62.1375L76 76L121.848 16.6456Z"/>
</mask>
<path d="M121.848 16.6456C107.968 5.92376 90.7688 0.405664 73.2415 1.05075C55.7143 1.69582 38.9674 8.46327 25.9128 20.1764C12.8582 31.8895 4.32154 47.8075 1.78714 65.1625C-0.747256 82.5175 2.88091 100.212 12.0408 115.169C21.2007 130.126 35.3129 141.4 51.9238 147.031C68.5346 152.661 86.5934 152.292 102.96 145.987C119.327 139.682 132.966 127.841 141.507 112.521C150.048 97.2023 152.95 79.3744 149.708 62.1375L76 76L121.848 16.6456Z" stroke="#70BC64" stroke-width="8" mask="url(#path-2-inside-1_29_800)"/>
<circle cx="76" cy="76" r="71" fill="#F1F6FC"/>
<line x1="42.1321" y1="74.9623" x2="66.9623" y2="114.868" stroke="#70BC64" stroke-width="6" stroke-linecap="round"/>
<line x1="120.169" y1="19.0784" x2="67.0784" y2="114.831" stroke="#70BC64" stroke-width="6" stroke-linecap="round"/>
</g>
<defs>
<clipPath id="clip0_29_800">
<rect width="153" height="152" fill="white"/>
</clipPath>
</defs>
</svg>
